#Comment line ignore any data following # character 
#Hierarchical Translation and Rotation (.htr) file 
[Header]	
#Header keywords are followed by a single value 
FileType HTR		#Single word string
DataType HTRS		#Translation followed by rotation and scale data
FileVersion 1		#integer
NumSegments 84		#integer
NumFrames 2		#integer
DataFrameRate 30		#integer, data frame rate in this file
EulerRotationOrder ZYX
CalibrationUnits mm
RotationUnits Degrees
GlobalAxisofGravity Y
BoneLengthAxis Y
ScaleFactor 1.00
[SegmentNames&Hierarchy]
#CHILD	PARENT
MASTER GLOBAL
root MASTER
chest root
L_mid_tent01 root
R_mid_tent01 root
spine01 root
Bip01_Neck chest
L_humerus chest
R_humerus chest
weapon_bone chest
Bip01_Head Bip01_Neck
eye_left_bone Bip01_Head
eye_right_bone Bip01_Head
L_forearm L_humerus
L_front_hand L_forearm
L_weapon_bone L_forearm
L_front_hand01_01 L_front_hand
L_front_hand02_01 L_front_hand
L_front_hand03_01 L_front_hand
L_front_hand01_02 L_front_hand01_01
L_front_hand02_02 L_front_hand02_01
L_front_hand03_02 L_front_hand03_01
R_forearm R_humerus
R_front_hand R_forearm
R_weapon_bone R_forearm
R_front_hand01_01 R_front_hand
R_front_hand02_01 R_front_hand
R_front_hand03_01 R_front_hand
R_front_hand01_02 R_front_hand01_01
R_front_hand02_02 R_front_hand02_01
R_front_hand03_02 R_front_hand03_01
null_rope01_connect L_mid_tent01
Rope1_Seg01 null_rope01_connect
Rope1_Seg02 Rope1_Seg01
Rope1_Seg03 Rope1_Seg02
Rope1_Seg04 Rope1_Seg03
Rope1_Seg05 Rope1_Seg04
Rope1_Seg06 Rope1_Seg05
Rope1_Seg07 Rope1_Seg06
Rope1_Seg09 Rope1_Seg07
L_mid_hand01 Rope1_Seg09
L_mid_hand02 Rope1_Seg09
L_mid_hand03 Rope1_Seg09
null_rope02_connect R_mid_tent01
Rope2_Seg01 null_rope02_connect
Rope2_Seg02 Rope2_Seg01
Rope2_Seg03 Rope2_Seg02
Rope2_Seg04 Rope2_Seg03
Rope2_Seg05 Rope2_Seg04
Rope2_Seg06 Rope2_Seg05
Rope2_Seg07 Rope2_Seg06
Rope2_Seg09 Rope2_Seg07
R_mid_hand01 Rope2_Seg09
R_mid_hand02 Rope2_Seg09
R_mid_hand03 Rope2_Seg09
spine02 spine01
spine03 spine02
pelvis spine03
null_rope03_connect pelvis
null_rope04_connect pelvis
Rope3_Seg01 null_rope03_connect
Rope3_Seg02 Rope3_Seg01
Rope3_Seg03 Rope3_Seg02
Rope3_Seg04 Rope3_Seg03
Rope3_Seg05 Rope3_Seg04
Rope3_Seg06 Rope3_Seg05
Rope3_Seg07 Rope3_Seg06
Rope3_Seg08 Rope3_Seg07
Rope3_Seg09 Rope3_Seg08
R_rear_hand01 Rope3_Seg09
R_rear_hand02 Rope3_Seg09
R_rear_hand03 Rope3_Seg09
Rope4_Seg01 null_rope04_connect
Rope4_Seg02 Rope4_Seg01
Rope4_Seg03 Rope4_Seg02
Rope4_Seg04 Rope4_Seg03
Rope4_Seg05 Rope4_Seg04
Rope4_Seg06 Rope4_Seg05
Rope4_Seg07 Rope4_Seg06
Rope4_Seg08 Rope4_Seg07
Rope4_Seg09 Rope4_Seg08
L_rear_hand01 Rope4_Seg09
L_rear_hand02 Rope4_Seg09
L_rear_hand03 Rope4_Seg09
[BasePosition]
#SegmentName Tx, Ty, Tz, Rx, Ry, Rz, BoneLength
MASTER 0.000000 0.000000 0.000000 -90.000000 0.000000 0.000000 10.000000 
root 0.000000 0.000000 0.000000 0.000000 0.000000 0.000000 10.000000 
chest 0.000000 0.000000 0.000000 0.000000 0.000000 0.000000 10.000000 
L_mid_tent01 0.000000 0.000000 0.000000 0.000000 0.000000 0.000000 10.000000 
R_mid_tent01 0.000000 0.000000 0.000000 0.000000 0.000000 0.000000 10.000000 
spine01 0.000000 0.000000 0.000000 0.000000 0.000000 0.000000 10.000000 
Bip01_Neck 0.000000 0.000000 0.000000 0.000000 0.000000 0.000000 10.000000 
L_humerus 0.000000 0.000000 0.000000 0.000000 0.000000 0.000000 10.000000 
R_humerus 0.000000 0.000000 0.000000 0.000000 0.000000 0.000000 10.000000 
weapon_bone 0.000000 0.000000 0.000000 0.000000 0.000000 0.000000 10.000000 
Bip01_Head 0.000000 0.000000 0.000000 0.000000 0.000000 0.000000 10.000000 
eye_left_bone 0.000000 0.000000 0.000000 0.000000 0.000000 0.000000 10.000000 
eye_right_bone 0.000000 0.000000 0.000000 0.000000 0.000000 0.000000 10.000000 
L_forearm 0.000000 0.000000 0.000000 0.000000 0.000000 0.000000 10.000000 
L_front_hand 0.000000 0.000000 0.000000 0.000000 0.000000 0.000000 10.000000 
L_weapon_bone 0.000000 0.000000 0.000000 0.000000 0.000000 0.000000 10.000000 
L_front_hand01_01 0.000000 0.000000 0.000000 0.000000 0.000000 0.000000 10.000000 
L_front_hand02_01 0.000000 0.000000 0.000000 0.000000 0.000000 0.000000 10.000000 
L_front_hand03_01 0.000000 0.000000 0.000000 0.000000 0.000000 0.000000 10.000000 
L_front_hand01_02 0.000000 0.000000 0.000000 0.000000 0.000000 0.000000 10.000000 
L_front_hand02_02 0.000000 0.000000 0.000000 0.000000 0.000000 0.000000 10.000000 
L_front_hand03_02 0.000000 0.000000 0.000000 0.000000 0.000000 0.000000 10.000000 
R_forearm 0.000000 0.000000 0.000000 0.000000 0.000000 0.000000 10.000000 
R_front_hand 0.000000 0.000000 0.000000 0.000000 0.000000 0.000000 10.000000 
R_weapon_bone 0.000000 0.000000 0.000000 0.000000 0.000000 0.000000 10.000000 
R_front_hand01_01 0.000000 0.000000 0.000000 0.000000 0.000000 0.000000 10.000000 
R_front_hand02_01 0.000000 0.000000 0.000000 0.000000 0.000000 0.000000 10.000000 
R_front_hand03_01 0.000000 0.000000 0.000000 0.000000 0.000000 0.000000 10.000000 
R_front_hand01_02 0.000000 0.000000 0.000000 0.000000 0.000000 0.000000 10.000000 
R_front_hand02_02 0.000000 0.000000 0.000000 0.000000 0.000000 0.000000 10.000000 
R_front_hand03_02 0.000000 0.000000 0.000000 0.000000 0.000000 0.000000 10.000000 
null_rope01_connect 0.000000 0.000000 0.000000 0.000000 0.000000 0.000000 10.000000 
Rope1_Seg01 0.000000 0.000000 0.000000 0.000000 0.000000 0.000000 10.000000 
Rope1_Seg02 0.000000 0.000000 0.000000 0.000000 0.000000 0.000000 10.000000 
Rope1_Seg03 0.000000 0.000000 0.000000 0.000000 0.000000 0.000000 10.000000 
Rope1_Seg04 0.000000 0.000000 0.000000 0.000000 0.000000 0.000000 10.000000 
Rope1_Seg05 0.000000 0.000000 0.000000 0.000000 0.000000 0.000000 10.000000 
Rope1_Seg06 0.000000 0.000000 0.000000 0.000000 0.000000 0.000000 10.000000 
Rope1_Seg07 0.000000 0.000000 0.000000 0.000000 0.000000 0.000000 10.000000 
Rope1_Seg09 0.000000 0.000000 0.000000 0.000000 0.000000 0.000000 10.000000 
L_mid_hand01 0.000000 0.000000 0.000000 0.000000 0.000000 0.000000 10.000000 
L_mid_hand02 0.000000 0.000000 0.000000 0.000000 0.000000 0.000000 10.000000 
L_mid_hand03 0.000000 0.000000 0.000000 0.000000 0.000000 0.000000 10.000000 
null_rope02_connect 0.000000 0.000000 0.000000 0.000000 0.000000 0.000000 10.000000 
Rope2_Seg01 0.000000 0.000000 0.000000 0.000000 0.000000 0.000000 10.000000 
Rope2_Seg02 0.000000 0.000000 0.000000 0.000000 0.000000 0.000000 10.000000 
Rope2_Seg03 0.000000 0.000000 0.000000 0.000000 0.000000 0.000000 10.000000 
Rope2_Seg04 0.000000 0.000000 0.000000 0.000000 0.000000 0.000000 10.000000 
Rope2_Seg05 0.000000 0.000000 0.000000 0.000000 0.000000 0.000000 10.000000 
Rope2_Seg06 0.000000 0.000000 0.000000 0.000000 0.000000 0.000000 10.000000 
Rope2_Seg07 0.000000 0.000000 0.000000 0.000000 0.000000 0.000000 10.000000 
Rope2_Seg09 0.000000 0.000000 0.000000 0.000000 0.000000 0.000000 10.000000 
R_mid_hand01 0.000000 0.000000 0.000000 0.000000 0.000000 0.000000 10.000000 
R_mid_hand02 0.000000 0.000000 0.000000 0.000000 0.000000 0.000000 10.000000 
R_mid_hand03 0.000000 0.000000 0.000000 0.000000 0.000000 0.000000 10.000000 
spine02 0.000000 0.000000 0.000000 0.000000 0.000000 0.000000 10.000000 
spine03 0.000000 0.000000 0.000000 0.000000 0.000000 0.000000 10.000000 
pelvis 0.000000 0.000000 0.000000 0.000000 0.000000 0.000000 10.000000 
null_rope03_connect 0.000000 0.000000 0.000000 0.000000 0.000000 0.000000 10.000000 
null_rope04_connect 0.000000 0.000000 0.000000 0.000000 0.000000 0.000000 10.000000 
Rope3_Seg01 0.000000 0.000000 0.000000 0.000000 0.000000 0.000000 10.000000 
Rope3_Seg02 0.000000 0.000000 0.000000 0.000000 0.000000 0.000000 10.000000 
Rope3_Seg03 0.000000 0.000000 0.000000 0.000000 0.000000 0.000000 10.000000 
Rope3_Seg04 0.000000 0.000000 0.000000 0.000000 0.000000 0.000000 10.000000 
Rope3_Seg05 0.000000 0.000000 0.000000 0.000000 0.000000 0.000000 10.000000 
Rope3_Seg06 0.000000 0.000000 0.000000 0.000000 0.000000 0.000000 10.000000 
Rope3_Seg07 0.000000 0.000000 0.000000 0.000000 0.000000 0.000000 10.000000 
Rope3_Seg08 0.000000 0.000000 0.000000 0.000000 0.000000 0.000000 10.000000 
Rope3_Seg09 0.000000 0.000000 0.000000 0.000000 0.000000 0.000000 10.000000 
R_rear_hand01 0.000000 0.000000 0.000000 0.000000 0.000000 0.000000 10.000000 
R_rear_hand02 0.000000 0.000000 0.000000 0.000000 0.000000 0.000000 10.000000 
R_rear_hand03 0.000000 0.000000 0.000000 0.000000 0.000000 0.000000 10.000000 
Rope4_Seg01 0.000000 0.000000 0.000000 0.000000 0.000000 0.000000 10.000000 
Rope4_Seg02 0.000000 0.000000 0.000000 0.000000 0.000000 0.000000 10.000000 
Rope4_Seg03 0.000000 0.000000 0.000000 0.000000 0.000000 0.000000 10.000000 
Rope4_Seg04 0.000000 0.000000 0.000000 0.000000 0.000000 0.000000 10.000000 
Rope4_Seg05 0.000000 0.000000 0.000000 0.000000 0.000000 0.000000 10.000000 
Rope4_Seg06 0.000000 0.000000 0.000000 0.000000 0.000000 0.000000 10.000000 
Rope4_Seg07 0.000000 0.000000 0.000000 0.000000 0.000000 0.000000 10.000000 
Rope4_Seg08 0.000000 0.000000 0.000000 0.000000 0.000000 0.000000 10.000000 
Rope4_Seg09 0.000000 0.000000 0.000000 0.000000 0.000000 0.000000 10.000000 
L_rear_hand01 0.000000 0.000000 0.000000 0.000000 0.000000 0.000000 10.000000 
L_rear_hand02 0.000000 0.000000 0.000000 0.000000 0.000000 0.000000 10.000000 
L_rear_hand03 0.000000 0.000000 0.000000 0.000000 0.000000 0.000000 10.000000 
#Beginning of Data. Separated by tabs
#Fr	Tx	Ty	Tz	Rx	Ry	Rz	SF
[MASTER]
41 771.031982 6456.800781 2488.136719 0.001660 0.001660 0.001660 6962.441406
42 846.958313 6793.537598 2683.781006 0.001660 0.001660 0.001660 7353.378418
[root]
41 -105.167526 -65.228241 1398.287231 -87.054024 -30.910227 -90.023277 1403.752808
42 -60.287399 -63.819565 1451.943359 -89.440926 -33.332985 -89.947220 1454.595093
[chest]
41 -84.512650 -34.090519 0.000000 14.386595 2.076923 160.316925 91.129311
42 -84.512650 -34.090519 0.000000 12.267769 2.298812 170.367599 91.129311
[L_mid_tent01]
41 27.299557 22.177504 -249.918243 38.108871 57.694183 113.014000 252.381134
42 27.299557 22.177504 -249.918243 44.872204 58.405350 120.482323 252.381134
[R_mid_tent01]
41 23.228794 24.509907 226.238495 160.164612 -25.808975 87.101028 228.744751
42 23.228794 24.509907 226.238495 160.147903 -25.765604 87.145775 228.744751
[spine01]
41 -0.361383 -0.195265 0.000000 0.001845 0.001451 13.654368 0.410763
42 -0.361383 -0.195265 0.000000 0.001845 0.001451 13.654368 0.410763
[Bip01_Neck]
41 165.484543 71.581718 0.000119 176.643677 -1.657967 43.431911 180.302734
42 165.484543 71.581718 0.000119 176.643677 -1.657967 43.431911 180.302734
[L_humerus]
41 -13.983130 -135.272980 -120.471481 159.124481 74.439766 -109.047424 181.680161
42 -13.983130 -135.272980 -120.471481 170.777481 77.405754 -96.917450 181.680161
[R_humerus]
41 -13.983309 -135.273102 125.287651 172.830994 -70.671417 -76.690361 184.909012
42 -13.983309 -135.273102 125.287651 147.896622 -70.031097 -50.053230 184.909012
[weapon_bone]
41 235.964890 -300.705902 0.000000 0.000000 -89.951546 -128.212341 382.234833
42 235.964890 -300.705902 0.000000 0.000000 -89.951546 -128.212341 382.234833
[Bip01_Head]
41 213.441254 185.722733 11.681499 7.342804 3.721095 -23.405142 283.172333
42 213.441284 185.722641 11.682922 7.481627 3.375857 -20.567816 283.172333
[eye_left_bone]
41 -24.626970 125.451866 -64.772606 0.000000 -90.000000 -99.840431 143.318359
42 -24.626970 125.451866 -64.772606 0.000000 -90.000000 -99.840431 143.318359
[eye_right_bone]
41 -24.626970 125.451866 64.327362 0.000000 -89.980217 80.156387 143.117676
42 -24.626970 125.451866 64.327362 0.000000 -89.965736 80.156380 143.117676
[L_forearm]
41 322.776093 0.000000 -0.000119 0.000119 -0.002344 -95.807457 322.776093
42 322.776093 0.000000 -0.000119 0.000119 -0.002344 -95.807457 322.776093
[L_front_hand]
41 241.149185 -0.042021 -3.300071 117.242340 -1.834245 -27.422215 241.171753
42 241.149185 -0.042021 -3.300071 149.893951 -1.837325 -27.423067 241.171753
[L_weapon_bone]
41 156.183838 0.000000 0.000000 0.000014 0.000007 0.000001 156.183838
42 156.183838 0.000000 0.000000 0.000014 0.000007 0.000001 156.183838
[L_front_hand01_01]
41 86.095154 20.947098 -0.655860 -0.141513 -0.583183 51.382324 88.609184
42 86.095154 20.947098 -0.655860 -0.297761 -0.518820 67.608261 88.609184
[L_front_hand02_01]
41 86.935165 -11.437475 24.513514 129.449921 -44.590603 -30.362572 91.046425
42 86.935165 -11.437475 24.513514 143.743973 -55.870316 -48.810265 91.046425
[L_front_hand03_01]
41 86.637497 -14.123976 -20.424902 -130.394058 42.943821 -32.769855 90.126129
42 86.637497 -14.123976 -20.424902 -143.978928 54.089474 -50.752655 90.126129
[L_front_hand01_02]
41 71.020905 -0.000179 0.000030 0.001118 0.002096 -33.857998 71.020905
42 71.020905 -0.000179 0.000030 0.001407 0.001879 -16.339647 71.020905
[L_front_hand02_02]
41 71.020927 -0.000119 0.000060 0.001118 0.002096 -33.857998 71.020927
42 71.020927 -0.000119 0.000060 0.001407 0.001879 -16.339647 71.020927
[L_front_hand03_02]
41 71.020905 -0.000060 0.000060 0.001118 0.002096 -33.857998 71.020905
42 71.020905 -0.000060 0.000060 0.001407 0.001879 -16.339647 71.020905
[R_forearm]
41 322.776428 -0.000060 0.000030 0.183531 -0.108686 -60.443707 322.776428
42 322.776428 -0.000060 0.000030 0.181140 -0.111109 -59.438820 322.776428
[R_front_hand]
41 238.847015 -0.006795 2.210259 27.744953 -10.643394 -26.315783 238.857239
42 238.847015 -0.006795 2.210259 -8.879457 -10.642941 -26.315098 238.857239
[R_weapon_bone]
41 155.664093 0.002503 -0.000030 0.003487 0.001180 -90.988930 155.664078
42 155.664093 0.002503 -0.000030 0.003487 0.001180 -90.988930 155.664078
[R_front_hand01_01]
41 87.624611 14.231146 22.918642 -131.167908 -46.570522 32.870136 91.683487
42 87.624611 14.231146 22.918642 -145.539246 -56.711700 51.071224 91.683487
[R_front_hand02_01]
41 89.356956 14.367283 -19.491137 132.263260 45.118065 35.686356 92.579636
42 89.356956 14.367283 -19.491137 146.038528 55.093983 53.517178 92.579636
[R_front_hand03_01]
41 87.286232 -22.307278 -0.143439 -0.003786 -0.455672 -54.215679 90.091743
42 87.286232 -22.307278 -0.143439 0.112108 -0.437554 -69.313698 90.091743
[R_front_hand01_02]
41 71.020905 0.000060 0.000119 0.002212 0.000785 50.925083 71.020905
42 71.020905 0.000060 0.000119 0.002048 0.001147 31.489717 71.020905
[R_front_hand02_02]
41 71.020844 -0.000030 -0.000119 0.002212 0.000785 50.925083 71.020836
42 71.020844 -0.000030 -0.000119 0.002048 0.001147 31.489717 71.020836
[R_front_hand03_02]
41 71.020905 0.000000 0.000030 0.002212 0.000785 50.925083 71.020905
42 71.020905 0.000000 0.000030 0.002048 0.001147 31.489717 71.020905
[null_rope01_connect]
41 328.732483 0.000000 -0.000238 -128.732300 -27.612106 157.534821 328.732483
42 328.732483 0.000000 -0.000238 -127.640350 -22.365257 156.379868 328.732483
[Rope1_Seg01]
41 0.000000 0.000000 0.000000 -67.798912 34.899143 -100.313759 0.000000
42 0.000000 0.000000 0.000000 -49.941544 26.444845 -108.488075 0.000000
[Rope1_Seg02]
41 139.999863 -0.000179 0.000000 -40.761585 14.342457 12.698755 139.999863
42 139.999863 -0.000179 0.000000 -67.345573 14.327315 6.471217 139.999863
[Rope1_Seg03]
41 139.999924 0.000060 -0.000060 -22.806402 4.278218 31.599590 139.999924
42 139.999924 0.000060 -0.000060 -26.509636 -0.978564 34.532215 139.999924
[Rope1_Seg04]
41 139.999924 -0.000060 -0.000119 -6.757369 -6.543671 26.197113 139.999924
42 139.999924 -0.000060 -0.000119 -8.998730 -15.860799 34.838184 139.999924
[Rope1_Seg05]
41 139.999832 0.000119 -0.000060 -0.531735 -6.310338 8.131392 139.999832
42 139.999832 0.000119 -0.000060 -0.756933 -8.006373 11.372135 139.999832
[Rope1_Seg06]
41 139.999954 0.000119 -0.000060 -0.256111 -6.550297 3.291250 139.999954
42 139.999954 0.000119 -0.000060 -0.471327 -5.727833 4.894457 139.999954
[Rope1_Seg07]
41 139.999985 0.000060 0.000000 -0.252597 -4.657149 4.423276 139.999985
42 139.999985 0.000060 0.000000 -0.480608 -4.901564 4.206139 139.999985
[Rope1_Seg09]
41 121.602913 0.000119 -0.000089 -89.793175 -1.359789 0.847147 121.602913
42 121.602913 0.000119 -0.000089 -89.793175 -1.359789 0.847147 121.602913
[L_mid_hand01]
41 103.859421 1.038730 8.195221 130.544373 -67.584534 -38.866943 104.187431
42 103.859421 1.038730 8.195221 130.544373 -67.584534 -38.866943 104.187431
[L_mid_hand02]
41 105.572853 -4.139662 -10.864139 -168.923172 43.409309 -73.498886 106.211075
42 105.572853 -4.139662 -10.864139 -168.923172 43.409309 -73.498886 106.211075
[L_mid_hand03]
41 104.641464 17.579376 -3.913581 -6.012627 17.808174 74.893669 106.179977
42 104.641464 17.579376 -3.913581 -6.012628 17.808178 74.893669 106.179977
[null_rope02_connect]
41 328.732849 0.000179 -0.000119 -109.520142 55.671543 31.501097 328.732849
42 328.732849 0.000179 -0.000119 -104.675560 57.427349 34.450985 328.732849
[Rope2_Seg01]
41 0.000162 0.000210 0.000000 -57.368366 18.259958 -38.096325 0.000265
42 0.000164 0.000211 0.000000 25.317965 14.844740 -42.652206 0.000267
[Rope2_Seg02]
41 139.999741 -0.000060 -0.000119 -68.068275 5.003925 18.494757 139.999756
42 139.999741 -0.000060 -0.000119 -152.075714 21.222767 -0.519623 139.999756
[Rope2_Seg03]
41 140.000107 0.000030 0.000000 -4.419415 -17.078348 10.386563 140.000107
42 140.000107 0.000030 0.000000 -5.400141 -28.291872 15.645518 140.000107
[Rope2_Seg04]
41 139.999802 0.000000 -0.000060 -3.685177 -13.522968 9.782038 139.999802
42 139.999802 0.000000 -0.000060 -2.991561 -20.994516 11.829845 139.999802
[Rope2_Seg05]
41 139.999985 -0.000060 0.000119 -6.532367 -12.195148 17.801458 139.999985
42 139.999985 -0.000060 0.000119 -2.758510 -14.946602 14.675595 139.999985
[Rope2_Seg06]
41 139.999893 -0.000030 -0.000119 -1.883421 -9.464800 11.467369 139.999893
42 139.999893 -0.000030 -0.000119 -0.119642 -10.431705 9.822940 139.999893
[Rope2_Seg07]
41 139.999893 0.000060 -0.000060 -0.192572 -5.497364 5.796578 139.999893
42 139.999893 0.000060 -0.000060 0.539280 -5.791927 5.046926 139.999893
[Rope2_Seg09]
41 121.338966 0.000089 -0.000060 33.793236 -1.359788 -0.847141 121.338966
42 121.338966 0.000089 -0.000060 33.793236 -1.359788 -0.847141 121.338966
[R_mid_hand01]
41 104.680779 11.144459 -10.335981 -16.212063 45.237247 70.462852 105.778534
42 104.680779 11.144459 -10.335981 -16.212063 45.237247 70.462852 105.778534
[R_mid_hand02]
41 104.070427 2.443552 8.231699 49.067375 -67.749794 39.286476 104.424065
42 104.070427 2.443552 8.231699 49.067368 -67.749771 39.286453 104.424065
[R_mid_hand03]
41 106.028137 -11.221827 -5.996406 -177.101105 15.551026 -76.585571 106.788818
42 106.028137 -11.221827 -5.996406 -177.101105 15.551026 -76.585571 106.788818
[spine02]
41 129.756927 0.001550 0.000119 -1.023899 -3.926965 6.770993 129.756927
42 129.756927 0.001550 0.000119 -1.023900 -3.926965 6.770994 129.756927
[spine03]
41 78.613777 0.087337 -4.898801 1.040680 4.146419 4.212375 78.766312
42 78.613777 0.087339 -4.898799 1.040681 4.146420 4.212376 78.766312
[pelvis]
41 169.435242 0.051022 0.000000 0.019518 -0.190233 -10.721436 169.435257
42 169.435242 0.051022 0.000000 0.019518 -0.190233 -10.721436 169.435257
[null_rope03_connect]
41 -1.257226 -2.466202 137.391083 30.702723 -87.371033 76.373383 137.418976
42 -1.257226 -2.466202 137.391083 0.000000 -89.710609 109.493004 137.418976
[null_rope04_connect]
41 -1.259640 -2.480268 -137.844437 30.702723 -87.371033 76.373383 137.872513
42 -1.259640 -2.480268 -137.844437 0.000000 -89.710609 109.493004 137.872513
[Rope3_Seg01]
41 -0.000012 0.000009 -0.000153 -146.440582 -38.580109 -56.975399 0.000153
42 -0.000012 0.000011 -0.000153 -149.404678 -42.741180 -55.632462 0.000153
[Rope3_Seg02]
41 139.999924 -0.000119 0.000060 -8.445311 -3.919922 -24.991482 139.999924
42 139.999924 -0.000119 0.000060 -11.226761 -0.019660 -24.000423 139.999924
[Rope3_Seg03]
41 139.999924 -0.000119 0.000119 -72.497017 -5.063972 -41.466640 139.999924
42 139.999924 -0.000119 0.000119 -67.077362 3.020329 -43.887978 139.999924
[Rope3_Seg04]
41 139.999924 0.000119 0.000000 -35.844913 34.295795 0.680722 139.999924
42 139.999924 0.000119 0.000000 -25.582079 33.822227 3.237878 139.999924
[Rope3_Seg05]
41 139.999924 -0.000238 0.000060 0.086349 9.239432 11.624179 139.999924
42 139.999924 -0.000238 0.000060 -0.635023 6.610692 6.582221 139.999924
[Rope3_Seg06]
41 139.999893 -0.000119 -0.000060 -0.045387 3.873437 3.731933 139.999893
42 139.999893 -0.000119 -0.000060 -0.125319 2.947585 2.180331 139.999893
[Rope3_Seg07]
41 139.999771 0.000060 -0.000119 0.273722 2.296688 2.218438 139.999771
42 139.999771 0.000060 -0.000119 0.215442 1.789681 1.335605 139.999771
[Rope3_Seg08]
41 139.999985 -0.000060 0.000000 0.412109 1.327589 1.272642 139.999985
42 139.999985 -0.000060 0.000000 0.374800 1.052598 0.776667 139.999985
[Rope3_Seg09]
41 90.185997 -0.000179 -0.000060 89.793228 -1.359877 -0.847183 90.185997
42 90.185997 -0.000179 -0.000060 89.793228 -1.359877 -0.847183 90.185997
[R_rear_hand01]
41 103.366196 -6.073594 -10.757982 -177.714203 24.565966 -73.910957 104.101845
42 103.366196 -6.073594 -10.757982 -177.714203 24.565960 -73.910950 104.101845
[R_rear_hand02]
41 100.509819 12.039542 -7.992327 -12.874829 36.868488 72.167213 101.543350
42 100.509819 12.039542 -7.992327 -12.874834 36.868492 72.167213 101.543350
[R_rear_hand03]
41 101.539970 5.215704 5.435467 71.484581 -71.816628 21.513813 101.819031
42 101.539970 5.215704 5.435467 71.484627 -71.816643 21.513803 101.819031
[Rope4_Seg01]
41 0.000000 0.000057 0.000000 93.427498 -41.127289 -156.451981 0.000057
42 0.000000 0.000058 0.000000 89.288940 -47.769642 -146.473358 0.000058
[Rope4_Seg02]
41 139.999985 0.000060 0.000119 -7.759388 -3.743689 -7.805524 139.999985
42 139.999985 0.000060 0.000119 -2.360347 -10.615743 -7.788897 139.999985
[Rope4_Seg03]
41 139.999924 0.000000 -0.000238 -28.398005 -4.599503 -17.246744 139.999924
42 139.999924 0.000000 -0.000238 -50.744980 -18.746632 -24.944803 139.999924
[Rope4_Seg04]
41 139.999985 0.000000 0.000119 -53.771721 13.369520 -31.724112 139.999985
42 139.999985 0.000000 0.000119 -98.855827 -5.628373 -43.031700 139.999985
[Rope4_Seg05]
41 139.999802 -0.000060 -0.000119 -40.645226 20.487812 -37.682247 139.999802
42 139.999802 -0.000060 -0.000119 -25.164127 25.502195 -17.956280 139.999802
[Rope4_Seg06]
41 139.999924 0.000000 0.000060 -9.471521 16.573420 -12.198254 139.999924
42 139.999924 0.000000 0.000060 -1.789751 8.478963 -0.215310 139.999924
[Rope4_Seg07]
41 139.999802 0.000000 0.000000 -1.432228 6.946525 -2.394491 139.999802
42 139.999802 0.000000 0.000000 -0.561039 4.399664 0.039517 139.999802
[Rope4_Seg08]
41 139.999924 0.000000 0.000119 -1.985343 3.416297 -1.086857 139.999924
42 139.999924 0.000000 0.000119 -1.763476 2.371755 0.044315 139.999924
[Rope4_Seg09]
41 90.185791 0.000060 0.000060 -135.617828 2.228885 0.850567 90.185791
42 90.185791 0.000060 0.000060 -135.617828 2.228885 0.850567 90.185791
[L_rear_hand01]
41 101.696655 -8.392275 -7.654577 -12.874829 -36.868488 107.832764 102.329041
42 101.696655 -8.392275 -7.654577 -12.874829 -36.868488 107.832764 102.329041
[L_rear_hand02]
41 102.726799 -1.568258 5.773216 71.484581 71.816628 158.486160 102.900848
42 102.726799 -1.568258 5.773216 71.484581 71.816628 158.486160 102.900848
[L_rear_hand03]
41 104.552910 9.721220 -10.420293 -177.714203 -24.565960 -106.089035 105.519653
42 104.552910 9.721220 -10.420293 -177.714203 -24.565966 -106.089035 105.519653
